<svg width="168.74327" height="48.003143" viewBox="0 0 168.74327 48.003143" version="1.1" fill="#000000" id="svg34" xmlns="http://www.w3.org/2000/svg" xmlns:svg="http://www.w3.org/2000/svg">
  <defs id="defs34" />
  <path
     d="m 73.2962,25.3675 h 3.7393 c 0.0509,-0.0018 0.1017,0.007 0.1491,0.0257 0.0473,0.0188 0.0903,0.0471 0.1262,0.0832 0.0359,0.0362 0.064,0.0793 0.0824,0.1268 0.0184,0.0475 0.0268,0.0983 0.0247,0.1492 v 21.6078 c 0.0021,0.0508 -0.0063,0.1015 -0.0247,0.1488 -0.0185,0.0474 -0.0465,0.0904 -0.0825,0.1264 -0.0359,0.0359 -0.079,0.064 -0.1263,0.0825 -0.0474,0.0184 -0.0981,0.0268 -0.1489,0.0247 H 73.2962 C 73.2453,47.7447 73.1945,47.7363 73.147,47.7179 73.0995,47.6994 73.0563,47.6714 73.0202,47.6355 72.984,47.5996 72.9557,47.5566 72.937,47.5092 72.9182,47.4619 72.9095,47.4111 72.9113,47.3602 v -1.0553 c 0,-0.1274 -0.0943,-0.1606 -0.1912,-0.0637 -0.4241,0.5693 -0.9803,1.0268 -1.6207,1.3333 -0.6403,0.3064 -1.3456,0.4524 -2.0549,0.4255 -3.0053,0 -5.2408,-1.7843 -6.1686,-4.6672 -0.3819,-1.2527 -0.5651,-2.5574 -0.5429,-3.8668 -0.0279,-1.344 0.1667,-2.6833 0.5761,-3.9637 0.9252,-2.6229 3.0358,-4.4429 6.2322,-4.4429 1.6288,0 2.781,0.6067 3.5686,1.5982 0.0969,0.1275 0.1912,0.0638 0.1912,-0.0662 v -6.8466 c -0.0012,-0.0514 0.0083,-0.1025 0.028,-0.15 0.0197,-0.0475 0.0491,-0.0904 0.0862,-0.1259 0.0372,-0.0355 0.0814,-0.0628 0.1298,-0.0803 0.0483,-0.0174 0.0998,-0.0246 0.1511,-0.0211 z m -0.4155,14.1622 c 0,-1.407 -0.2243,-2.526 -0.7035,-3.357 -0.2103,-0.3824 -0.5207,-0.7004 -0.8979,-0.92 -0.3771,-0.2195 -0.8069,-0.3324 -1.2433,-0.3265 -0.4566,-0.0217 -0.9104,0.0832 -1.3112,0.3032 -0.4008,0.2199 -0.733,0.5464 -0.9599,0.9433 -0.5098,0.7978 -0.7979,1.95 -0.7979,3.3876 -0.0289,1.1032 0.2007,2.1978 0.6704,3.1964 0.2308,0.4236 0.5735,0.7756 0.9906,1.0179 0.4171,0.2422 0.8926,0.3654 1.3749,0.356 0.9915,0 1.7256,-0.5098 2.238,-1.3739 0.4053,-0.7672 0.6398,-1.9168 0.6398,-3.227 z"
     id="path25" />
  <path
     d="m 94.7128,40.5518 c -0.0016,0.0526 -0.0137,0.1043 -0.0356,0.1521 -0.0219,0.0479 -0.053,0.0909 -0.0917,0.1265 -0.0387,0.0356 -0.0842,0.0631 -0.1336,0.0809 -0.0495,0.0179 -0.102,0.0256 -0.1546,0.0229 H 84.42 c -0.0969,0 -0.1606,0.0637 -0.1274,0.1606 0.06,0.4386 0.1783,0.8672 0.3517,1.2745 0.5098,1.0858 1.5294,1.7843 3.3876,1.7843 0.6304,0.0046 1.2525,-0.1432 1.8135,-0.4308 0.561,-0.2876 1.0442,-0.7065 1.4084,-1.221 0.1581,-0.2243 0.3187,-0.2549 0.5098,-0.0637 l 2.2941,2.2686 c 0.0426,0.0302 0.0778,0.0695 0.1032,0.1151 0.0253,0.0456 0.0401,0.0963 0.0433,0.1484 0.0032,0.0521 -0.0053,0.1042 -0.0249,0.1526 -0.0197,0.0483 -0.0499,0.0917 -0.0884,0.1268 -1.4402,1.7843 -3.8057,2.781 -6.4898,2.7504 -3.645,0 -6.1685,-1.8225 -7.2569,-4.7309 -0.4735,-1.2445 -0.7012,-2.5689 -0.6704,-3.9 -0.045,-1.1488 0.1173,-2.2963 0.4792,-3.3876 0.9584,-3.0052 3.5482,-4.9552 6.9358,-4.9552 4.3792,0 6.9358,2.8039 7.4813,6.8083 0.1286,0.8997 0.1764,1.8091 0.1427,2.7172 z M 84.4837,36.8125 c -0.0973,0.3345 -0.1723,0.6751 -0.2243,1.0196 -0.0015,0.0215 0.0016,0.043 0.0092,0.0632 0.0075,0.0201 0.0193,0.0385 0.0345,0.0537 0.0152,0.0152 0.0335,0.027 0.0537,0.0345 0.0202,0.0076 0.0417,0.0107 0.0632,0.0092 h 5.5288 c 0.0968,0 0.1605,-0.0638 0.13,-0.1606 -0.0663,-0.3518 -0.0969,-0.6398 -0.1606,-0.8947 -0.3849,-1.2745 -1.3433,-2.0137 -2.781,-2.0137 -1.3739,-0.0026 -2.238,0.6729 -2.6535,1.8888 z"
     id="path26" />
  <path
     d="m 96.8615,43.2053 c -0.3855,-1.2194 -0.5689,-2.4938 -0.5429,-3.7725 -0.0274,-1.2579 0.1561,-2.5115 0.5429,-3.7087 1.0196,-2.8753 3.6755,-4.6647 7.0965,-4.6647 3.515,0 6.232,1.9806 7.063,4.5066 0.142,0.3684 0.228,0.7559 0.255,1.1496 0.01,0.0489 0.009,0.0993 -0.002,0.1478 -0.011,0.0486 -0.033,0.0941 -0.063,0.1336 -0.031,0.0394 -0.069,0.0718 -0.114,0.0949 -0.044,0.0232 -0.092,0.0366 -0.142,0.0392 l -3.676,0.5429 c -0.05,0.0115 -0.103,0.0121 -0.154,0.0019 -0.051,-0.0102 -0.099,-0.031 -0.141,-0.061 -0.043,-0.0301 -0.078,-0.0687 -0.104,-0.1134 -0.027,-0.0447 -0.043,-0.0945 -0.049,-0.1461 l -0.095,-0.5098 c -0.288,-1.0553 -1.343,-1.9168 -2.804,-1.9168 -1.373,0 -2.332,0.7341 -2.714,1.9168 -0.263,0.8485 -0.382,1.7351 -0.352,2.6229 -0.028,0.8846 0.079,1.7683 0.319,2.6204 0.157,0.6022 0.515,1.1327 1.014,1.5035 0.5,0.3709 1.112,0.5599 1.733,0.5357 0.617,0.022 1.224,-0.1601 1.727,-0.5182 0.503,-0.3581 0.873,-0.8722 1.054,-1.4624 0.027,-0.0599 0.039,-0.1257 0.034,-0.1912 0.011,-0.013 0.02,-0.0284 0.025,-0.0451 0.006,-0.0167 0.007,-0.0343 0.005,-0.0517 0.005,-0.0501 0.021,-0.0986 0.046,-0.1421 0.026,-0.0436 0.06,-0.0813 0.101,-0.1107 0.041,-0.0294 0.088,-0.0497 0.137,-0.0598 0.049,-0.01 0.1,-0.0095 0.149,0.0016 l 3.671,0.5684 c 0.05,0.003 0.098,0.0167 0.142,0.04 0.044,0.0233 0.082,0.0557 0.112,0.0951 0.03,0.0394 0.052,0.0848 0.063,0.1332 0.011,0.0484 0.012,0.0986 0.002,0.1472 -0.038,0.3032 -0.102,0.6025 -0.192,0.8947 C 110.083,46.3049 107.269,48 103.945,48 100.53,48 97.9092,46.1367 96.8615,43.2053 Z"
     id="path27" />
  <path
     d="m 113.027,26.9352 c 0,-0.67 0.266,-1.3125 0.74,-1.7862 0.474,-0.4738 1.116,-0.7399 1.786,-0.7399 0.67,0 1.313,0.2661 1.786,0.7399 0.474,0.4737 0.74,1.1162 0.74,1.7862 0,0.6699 -0.266,1.3124 -0.74,1.7861 -0.473,0.4738 -1.116,0.7399 -1.786,0.7399 -0.67,0 -1.312,-0.2661 -1.786,-0.7399 -0.474,-0.4737 -0.74,-1.1162 -0.74,-1.7861 z m 0.225,20.425 V 31.6661 c -0.003,-0.0511 0.006,-0.1022 0.024,-0.1498 0.019,-0.0477 0.047,-0.091 0.083,-0.1272 0.037,-0.0362 0.08,-0.0645 0.128,-0.083 0.047,-0.0186 0.098,-0.0271 0.149,-0.0249 h 3.74 c 0.051,-0.0018 0.101,0.0069 0.149,0.0257 0.047,0.0187 0.09,0.047 0.126,0.0832 0.036,0.0361 0.064,0.0793 0.082,0.1268 0.019,0.0475 0.027,0.0983 0.025,0.1492 v 15.6941 c 0.002,0.0508 -0.006,0.1015 -0.025,0.1489 -0.018,0.0473 -0.046,0.0903 -0.082,0.1263 -0.036,0.0359 -0.079,0.064 -0.126,0.0825 -0.048,0.0184 -0.098,0.0268 -0.149,0.0247 h -3.74 c -0.05,0.0021 -0.101,-0.0063 -0.149,-0.0247 -0.047,-0.0185 -0.09,-0.0465 -0.127,-0.0824 -0.036,-0.0359 -0.064,-0.0789 -0.083,-0.1263 -0.018,-0.0473 -0.027,-0.0981 -0.025,-0.149 z"
     id="path28" />
  <path
     d="m 131.087,25.3675 h 3.755 c 0.05,-0.0018 0.101,0.007 0.149,0.0257 0.047,0.0188 0.09,0.0471 0.126,0.0832 0.036,0.0362 0.064,0.0793 0.082,0.1268 0.019,0.0475 0.027,0.0983 0.025,0.1492 v 21.6078 c 0.002,0.0508 -0.006,0.1015 -0.025,0.1488 -0.018,0.0474 -0.046,0.0904 -0.082,0.1264 -0.036,0.0359 -0.079,0.064 -0.127,0.0825 -0.047,0.0184 -0.098,0.0268 -0.148,0.0247 h -3.755 c -0.051,0.0021 -0.102,-0.0063 -0.149,-0.0247 -0.047,-0.0185 -0.09,-0.0466 -0.126,-0.0825 -0.036,-0.036 -0.064,-0.079 -0.083,-0.1264 -0.018,-0.0473 -0.027,-0.098 -0.024,-0.1488 v -1.0553 c 0,-0.1274 -0.097,-0.1606 -0.192,-0.0637 -0.424,0.5693 -0.98,1.0268 -1.62,1.3333 -0.641,0.3064 -1.346,0.4524 -2.055,0.4255 -3.006,0 -5.244,-1.7843 -6.171,-4.6672 -0.381,-1.2529 -0.564,-2.5575 -0.543,-3.8668 -0.027,-1.3439 0.168,-2.683 0.576,-3.9637 0.928,-2.6229 3.036,-4.4429 6.232,-4.4429 1.631,0 2.781,0.6067 3.569,1.5982 0.094,0.1275 0.191,0.0638 0.191,-0.0662 v -6.8466 c -0.001,-0.0514 0.008,-0.1025 0.028,-0.15 0.019,-0.0475 0.049,-0.0904 0.086,-0.1259 0.037,-0.0355 0.081,-0.0628 0.13,-0.0803 0.048,-0.0174 0.1,-0.0246 0.151,-0.0211 z m -0.416,14.1622 c 0,-1.407 -0.221,-2.526 -0.703,-3.357 -0.21,-0.3828 -0.52,-0.7011 -0.898,-0.9207 -0.377,-0.2196 -0.807,-0.3323 -1.243,-0.3258 -0.457,-0.0218 -0.91,0.0831 -1.311,0.3031 -0.4,0.22 -0.732,0.5465 -0.958,0.9434 -0.51,0.7978 -0.798,1.95 -0.798,3.3876 -0.029,1.1032 0.201,2.1978 0.671,3.1964 0.23,0.4236 0.573,0.7756 0.99,1.0179 0.417,0.2422 0.893,0.3654 1.375,0.356 0.992,0 1.726,-0.5098 2.238,-1.3739 0.416,-0.7672 0.637,-1.9168 0.637,-3.227 z"
     id="path29" />
  <path
     d="m 137.737,26.9352 c -0.011,-0.3383 0.047,-0.6754 0.169,-0.9911 0.122,-0.3157 0.306,-0.6036 0.542,-0.8468 0.235,-0.2431 0.517,-0.4364 0.829,-0.5684 0.311,-0.132 0.646,-0.2 0.985,-0.2 0.338,0 0.673,0.068 0.985,0.2 0.312,0.132 0.594,0.3253 0.829,0.5684 0.236,0.2432 0.42,0.5311 0.542,0.8468 0.122,0.3157 0.179,0.6528 0.169,0.9911 0.01,0.3383 -0.047,0.6753 -0.169,0.991 -0.122,0.3157 -0.306,0.6037 -0.542,0.8468 -0.235,0.2431 -0.517,0.4364 -0.829,0.5684 -0.312,0.132 -0.647,0.2 -0.985,0.2 -0.339,0 -0.674,-0.068 -0.985,-0.2 -0.312,-0.132 -0.594,-0.3253 -0.829,-0.5684 -0.236,-0.2431 -0.42,-0.5311 -0.542,-0.8468 -0.122,-0.3157 -0.18,-0.6527 -0.169,-0.991 z m 0.224,20.425 V 31.6661 c -0.002,-0.0509 0.007,-0.1017 0.025,-0.1492 0.019,-0.0475 0.047,-0.0907 0.082,-0.1268 0.036,-0.0362 0.079,-0.0645 0.127,-0.0832 0.047,-0.0188 0.098,-0.0275 0.149,-0.0257 h 3.739 c 0.051,-0.0022 0.102,0.0063 0.15,0.0249 0.048,0.0186 0.091,0.0468 0.127,0.083 0.036,0.0362 0.065,0.0795 0.083,0.1272 0.019,0.0476 0.027,0.0987 0.025,0.1498 v 15.6941 c 0.002,0.0509 -0.007,0.1017 -0.026,0.149 -0.018,0.0474 -0.047,0.0904 -0.083,0.1263 -0.036,0.0359 -0.079,0.0639 -0.127,0.0824 -0.047,0.0184 -0.098,0.0268 -0.149,0.0247 h -3.739 c -0.051,0.0021 -0.102,-0.0063 -0.149,-0.0247 -0.047,-0.0185 -0.09,-0.0466 -0.126,-0.0825 -0.036,-0.036 -0.064,-0.079 -0.083,-0.1263 -0.018,-0.0474 -0.027,-0.0981 -0.025,-0.1489 z"
     id="path30" />
  <path
     d="m 168.743,36.7793 v 10.5809 c 0.002,0.0509 -0.007,0.1017 -0.026,0.149 -0.018,0.0474 -0.047,0.0904 -0.083,0.1263 -0.036,0.0359 -0.079,0.0639 -0.127,0.0824 -0.047,0.0184 -0.098,0.0268 -0.149,0.0247 h -3.739 c -0.051,0.0021 -0.102,-0.0063 -0.149,-0.0247 -0.048,-0.0185 -0.091,-0.0465 -0.127,-0.0824 -0.036,-0.0359 -0.065,-0.0789 -0.083,-0.1263 -0.019,-0.0473 -0.028,-0.0981 -0.026,-0.149 v -9.5893 c 0,-1.7257 -0.959,-2.8447 -2.46,-2.8447 -1.501,0 -2.526,1.0859 -2.526,2.8039 v 9.6301 c 0.002,0.0508 -0.006,0.1015 -0.025,0.1488 -0.018,0.0474 -0.046,0.0904 -0.082,0.1264 -0.036,0.0359 -0.079,0.064 -0.126,0.0825 -0.048,0.0184 -0.099,0.0268 -0.149,0.0247 h -3.709 c -0.051,0.0021 -0.102,-0.0063 -0.149,-0.0247 -0.047,-0.0185 -0.09,-0.0466 -0.126,-0.0825 -0.036,-0.036 -0.064,-0.079 -0.083,-0.1264 -0.018,-0.0473 -0.027,-0.098 -0.024,-0.1488 v -9.5893 c 0,-1.7257 -1.02,-2.8447 -2.526,-2.8447 -1.374,0 -2.333,0.8616 -2.527,2.2941 v 10.1399 c 0.003,0.0508 -0.006,0.1015 -0.024,0.1488 -0.019,0.0474 -0.047,0.0904 -0.083,0.1264 -0.036,0.0359 -0.079,0.064 -0.126,0.0825 -0.047,0.0184 -0.098,0.0268 -0.149,0.0247 h -3.739 c -0.051,0.0021 -0.102,-0.0063 -0.149,-0.0247 -0.048,-0.0185 -0.091,-0.0465 -0.127,-0.0824 -0.036,-0.0359 -0.065,-0.0789 -0.083,-0.1263 -0.019,-0.0473 -0.028,-0.0981 -0.026,-0.149 V 31.6967 c -0.002,-0.0509 0.007,-0.1017 0.026,-0.1491 0.018,-0.0473 0.047,-0.0903 0.083,-0.1262 0.036,-0.0359 0.079,-0.064 0.127,-0.0824 0.047,-0.0184 0.098,-0.0268 0.149,-0.0247 h 3.739 c 0.051,-0.0021 0.102,0.0063 0.149,0.0247 0.047,0.0185 0.09,0.0465 0.126,0.0825 0.036,0.0359 0.064,0.079 0.083,0.1263 0.018,0.0474 0.027,0.0981 0.024,0.1489 v 1.2464 c 0,0.13 0.097,0.1937 0.194,0.0663 0.895,-1.3433 2.294,-1.95 4.058,-1.95 2.141,0 3.773,0.9584 4.634,2.5872 0.067,0.1275 0.13,0.1275 0.225,0 0.958,-1.7843 2.653,-2.5872 4.603,-2.5872 3.324,0 5.307,2.108 5.307,5.7199 z"
     id="path31" />
  <path
     d="M 6.3104427e-6,19.7521 C -0.00133349,18.6696 0.210684,17.5974 0.62394,16.5969 1.0372,15.5964 1.64359,14.6871 2.40845,13.921 3.17331,13.155 4.08165,12.5472 5.08154,12.1324 6.08143,11.7176 7.15327,11.5039 8.23579,11.5036 h 6.59171 c 0.4365,7e-4 0.8549,0.1744 1.1636,0.483 0.3086,0.3087 0.4823,0.7271 0.483,1.1636 v 32.9457 c 0,0.2162 -0.0426,0.4304 -0.1253,0.6301 -0.0828,0.1998 -0.2041,0.3813 -0.357,0.5343 -0.1529,0.1529 -0.3344,0.2742 -0.5342,0.3569 -0.1998,0.0828 -0.4139,0.1253 -0.6301,0.1253 H 8.23579 C 6.05217,47.7419 3.95815,46.8743 2.41386,45.3305 0.869569,43.7867 0.00135745,41.6929 6.3104427e-6,39.5093 Z"
     id="path32" />
  <path
     d="M 34.5949,0 H 21.4141 C 20.5046,0 19.7674,0.737229 19.7674,1.64665 V 46.0959 c 0,0.9094 0.7372,1.6467 1.6467,1.6467 h 13.1808 c 0.9094,0 1.6466,-0.7373 1.6466,-1.6467 V 1.64665 C 36.2415,0.737229 35.5043,0 34.5949,0 Z"
     id="path33" />
  <path
     d="m 57.6556,39.5093 c -5e-4,1.6288 -0.484,3.2208 -1.3893,4.5749 -0.9052,1.354 -2.1917,2.4092 -3.6966,3.0322 -1.5049,0.6229 -3.1608,0.7857 -4.7582,0.4676 -1.5974,-0.3181 -3.0647,-1.1027 -4.2162,-2.2546 -1.1515,-1.1519 -1.9357,-2.6193 -2.2532,-4.2169 -0.3176,-1.5975 -0.1544,-3.2533 0.4691,-4.758 0.6234,-1.5048 1.679,-2.7909 3.0333,-3.6957 1.3543,-0.9049 2.9465,-1.3878 4.5753,-1.3878 2.1845,7e-4 4.2793,0.8689 5.8237,2.4138 1.5444,1.545 2.4121,3.64 2.4121,5.8245 z"
     id="path34" />
</svg>
