<svg id="Capa_1" data-name="Capa 1" xmlns="http://www.w3.org/2000/svg" viewBox="0 0 273.14 65.75"><defs><style>.cls-1{fill:#1d1d1b;stroke:#1d1d1b;stroke-miterlimit:10;stroke-width:0.26px;}</style></defs><path class="cls-1" d="M29,25.31c-2.31-1.67-5.82-2.56-11.58-2.56H.13V64.69H7.62V48.89h8.14c5,0,9.38-.6,12.47-2.32,3.68-2.08,5.35-6.3,5.35-11C33.58,31.36,32.15,27.5,29,25.31ZM23.6,40.93c-1.67,1.13-4.34,1.54-8.44,1.54H7.62V29.17h8c4.33,0,6.35.23,8,1.42a6.19,6.19,0,0,1,2.13,5.05C25.73,38,25.14,39.8,23.6,40.93Z"/><path class="cls-1" d="M49.67,34.27c-9.15,0-14.91,5.77-14.91,15.57S40,65.52,49.26,65.52c8.67,0,14.49-5.46,14.49-15.33C63.75,40.16,58.46,34.27,49.67,34.27ZM49.31,59.7c-4.33,0-7.42-3.33-7.42-10,0-6.18,3.21-9.56,7.6-9.56s7.25,3.32,7.25,9.92S53.65,59.7,49.31,59.7Z"/><polygon class="cls-1" points="94.22 35.11 85.79 35.11 74.56 47.7 74.56 22.75 67.61 22.75 67.61 64.69 74.56 64.69 74.56 55.78 78.9 51.2 87.15 64.69 95.23 64.69 83.83 46.33 94.22 35.11"/><path class="cls-1" d="M108.83,34.27c-8.61,0-14.31,5.89-14.31,15.33,0,9.8,5.11,16,14.61,16,6.18,0,10.69-3,12.89-8.32l-6.12-2.13c-1.07,3.38-3.62,4.57-6.65,4.57-4.69,0-7.49-2.91-7.72-8H122.2C122.14,41.11,118.22,34.27,108.83,34.27Zm-7.24,12.42c.47-4.63,3.26-7,7.06-7s6.24,2.38,6.48,7Z"/><path class="cls-1" d="M144.37,59c-7.25,0-11.49-6-11.49-15.37,0-8.82,4-14.27,11.49-14.27,4.46,0,7.31,2.72,8.41,7.19L160,33.89c-2.09-6.78-7.43-11.08-15.55-11.08-11.6,0-19.31,7.66-19.31,21.12s7.13,21.69,18.91,21.69c7.88,0,13.92-4.06,16.47-11.6l-7.08-2.55C152.37,56.45,148.89,59,144.37,59Z"/><path class="cls-1" d="M178.47,34.27c-9.15,0-14.91,5.77-14.91,15.57s5.22,15.68,14.49,15.68c8.67,0,14.49-5.46,14.49-15.33C192.54,40.16,187.26,34.27,178.47,34.27Zm-.36,25.43c-4.34,0-7.43-3.33-7.43-10,0-6.18,3.21-9.56,7.61-9.56s7.24,3.32,7.24,9.92S182.44,59.7,178.11,59.7Z"/><path class="cls-1" d="M216.12,38.37c-1.6-2.25-4-3.86-8.43-3.86-6.83,0-12.3,5.59-12.3,15.27,0,10.28,5.05,15.5,11.88,15.5a10.17,10.17,0,0,0,8.85-4.75v4.16h6.78V22.75h-6.78Zm-7,21.09c-4.09,0-6.59-3.8-6.59-9.74,0-6.3,2.79-9.45,6.89-9.45S216.12,44,216.12,50C216.12,56.25,213.21,59.46,209.11,59.46Z"/><path class="cls-1" d="M240.48,34.27c-8.61,0-14.32,5.89-14.32,15.33,0,9.8,5.11,16,14.62,16,6.17,0,10.69-3,12.89-8.32l-6.12-2.13c-1.07,3.38-3.63,4.57-6.66,4.57-4.69,0-7.48-2.91-7.72-8h20.67C253.78,41.11,249.86,34.27,240.48,34.27Zm-7.25,12.42c.48-4.63,3.27-7,7.07-7s6.24,2.38,6.48,7Z"/><polygon class="cls-1" points="272.97 19.78 271.95 17.6 260.29 23.03 248.62 17.6 247.61 19.78 257.44 24.36 247.61 28.93 248.62 31.11 260.29 25.68 271.95 31.11 272.97 28.93 263.13 24.36 272.97 19.78"/><path class="cls-1" d="M260.26,19.51a9.69,9.69,0,1,0-9.69-9.69A9.7,9.7,0,0,0,260.26,19.51Zm0-17A7.29,7.29,0,1,1,253,9.82,7.3,7.3,0,0,1,260.26,2.53Z"/><path class="cls-1" d="M263.27,12.34a2.1,2.1,0,0,0,2.12-1.46l-1.07-.37a.93.93,0,0,1-1,.82c-.79,0-1.26-.59-1.26-1.71S262.6,8,263.3,8c.48,0,.84.22,1,.89l1.07-.36a2,2,0,0,0-2-1.54,2.4,2.4,0,0,0-2.48,2.68A2.39,2.39,0,0,0,263.27,12.34Z"/><path class="cls-1" d="M257.19,11.33a.93.93,0,0,1-1-.82l-1.07.37a2.09,2.09,0,0,0,2.12,1.46,2.39,2.39,0,0,0,2.42-2.7A2.4,2.4,0,0,0,257.19,7a2,2,0,0,0-2,1.54l1.07.36c.14-.67.51-.89,1-.89.69,0,1.23.52,1.23,1.65S258,11.33,257.19,11.33Z"/></svg>