<?xml version="1.0" encoding="UTF-8" standalone="no"?>
<!DOCTYPE svg PUBLIC "-//W3C//DTD SVG 1.1//EN" "http://www.w3.org/Graphics/SVG/1.1/DTD/svg11.dtd">
<svg width="100%" height="100%" viewBox="0 0 33 33" version="1.1" xmlns="http://www.w3.org/2000/svg" xmlns:xlink="http://www.w3.org/1999/xlink" xml:space="preserve" xmlns:serif="http://www.serif.com/" style="fill-rule:evenodd;clip-rule:evenodd;stroke-linejoin:round;stroke-miterlimit:2;"><g><path d="M32.82,11.24c0,-5.52 -4.3,-9.66 -9.98,-9.66c-1.68,0 -3.35,0.39 -4.81,1.16c-1.72,-1.71 -4.08,-2.74 -6.78,-2.74c-5.52,0 -9.67,4.3 -9.67,9.98c-0,1.68 0.39,3.35 1.17,4.81c-1.71,1.72 -2.75,4.08 -2.75,6.78c0,5.52 4.31,9.67 9.99,9.67c1.68,0 3.35,-0.39 4.81,-1.17c1.72,1.72 4.08,2.75 6.78,2.75c5.52,0 9.66,-4.31 9.66,-9.99c0,-1.68 -0.39,-3.35 -1.16,-4.81c1.71,-1.71 2.74,-4.08 2.74,-6.78Zm-10.04,-7.8c4.6,0 7.94,3.34 7.94,7.8c0,2.02 -0.69,3.81 -1.86,5.16c-0.35,0.41 -0.74,0.76 -1.17,1.08c-1.32,0.99 -3.01,1.57 -4.91,1.57c-2.41,-0 -4.76,-0.9 -6.35,-2.64l2.23,0c1.51,-1.75 2.26,-4.09 2.26,-6.43c0,-2.21 -0.64,-4.21 -1.73,-5.83c1.12,-0.47 2.35,-0.71 3.59,-0.71Zm-19.34,6.6c0,-4.6 3.35,-7.94 7.81,-7.94c2.02,0 3.81,0.69 5.16,1.86c0.4,0.35 0.76,0.74 1.08,1.17c0.99,1.32 1.57,3 1.57,4.91c-0,2.41 -0.9,4.76 -2.64,6.35l0,-2.23c-1.76,-1.51 -4.09,-2.26 -6.43,-2.26c-2.21,0 -4.21,0.64 -5.83,1.73c-0.47,-1.12 -0.72,-2.35 -0.72,-3.59Zm6.6,19.34c-4.59,0 -7.94,-3.35 -7.94,-7.81c-0,-2.02 0.69,-3.8 1.87,-5.16c0.35,-0.4 0.74,-0.76 1.17,-1.08c1.32,-0.99 3,-1.57 4.9,-1.57c2.41,-0 4.77,0.9 6.36,2.64l-2.23,0c-1.52,1.76 -2.26,4.1 -2.26,6.43c0,2.21 0.63,4.21 1.73,5.83c-1.12,0.47 -2.35,0.72 -3.6,0.72Zm19.35,-6.6c-0,4.59 -3.35,7.94 -7.81,7.94c-2.02,0 -3.81,-0.69 -5.16,-1.87c-0.4,-0.35 -0.76,-0.74 -1.08,-1.16c-0.99,-1.33 -1.57,-3.01 -1.57,-4.91c-0,-2.41 0.9,-4.77 2.64,-6.36l0,2.23c1.75,1.52 4.09,2.26 6.43,2.26c2.21,0 4.21,-0.63 5.83,-1.73c0.47,1.12 0.72,2.35 0.72,3.6Z" style="fill:#1085c1;fill-rule:nonzero;"/></g></svg>